<svg xmlns="http://www.w3.org/2000/svg" width="32" height="32" viewBox="0 0 24 24">
    <path fill="currentColor"
        d="M7 21q-.825 0-1.413-.588T5 19V6q-.425 0-.713-.288T4 5q0-.425.288-.713T5 4h4q0-.425.288-.713T10 3h4q.425 0 .713.288T15 4h4q.425 0 .713.288T20 5q0 .425-.288.713T19 6v13q0 .825-.588 1.413T17 21H7ZM17 6H7v13h10V6ZM7 6v13V6Zm5 7.9l1.9 1.9q.275.275.7.275t.7-.275q.275-.275.275-.7t-.275-.7l-1.9-1.9l1.9-1.9q.275-.275.275-.7t-.275-.7q-.275-.275-.7-.275t-.7.275L12 11.1l-1.9-1.9q-.275-.275-.7-.275t-.7.275q-.275.275-.275.7t.275.7l1.9 1.9l-1.9 1.9q-.275.275-.275.7t.275.7q.275.275.7.275t.7-.275l1.9-1.9Z" />
</svg>